<svg width="26" height="27" viewBox="0 0 26 27" fill="none" xmlns="http://www.w3.org/2000/svg">
<path fill-rule="evenodd" clip-rule="evenodd" d="M13.201 0.33889C9.67688 0.33889 6.82248 3.29171 6.82248 6.93738C6.82248 10.583 9.67688 13.5359 13.201 13.5359C16.7252 13.5359 19.5796 10.583 19.5796 6.93738C19.5796 3.29171 16.7252 0.33889 13.201 0.33889ZM16.3901 6.93737C16.3901 5.12279 14.9549 3.63813 13.2008 3.63813C11.4467 3.63813 10.0116 5.12279 10.0116 6.93737C10.0116 8.75195 11.4467 10.2366 13.2008 10.2366C14.9549 10.2366 16.3901 8.75195 16.3901 6.93737ZM22.7687 23.4337C22.4497 22.2625 17.5064 20.1345 13.2008 20.1345C8.91128 20.1345 3.99981 22.246 3.63304 23.4337H22.7687ZM0.443604 23.4339C0.443604 19.0459 8.943 16.8354 13.2007 16.8354C17.4583 16.8354 25.9577 19.0459 25.9577 23.4339V26.7332H0.443604V23.4339Z" fill="black" fill-opacity="0.44"/>
</svg>
